<svg xmlns="http://www.w3.org/2000/svg" viewBox="0 0 645.03 88.49"><title>night_shift_</title><path d="M643.63,3.36c1,.28,1.4,1.26,1.4,2.66,0,2-1.4,7.7-2.8,11.62-1.4,3.64-2.38,4.48-5,4.48L627,22s-1.7,8.78-3.66,15.78c-7,25.48-9.94,36.55-11.48,42.85s-2.24,7-6.73,7a35,35,0,0,1-9.24-1.26c-4.2-1.12-5.74-2.24-5.74-4.06,0-2.24,7.84-29.69,16.94-58.81l.28-1.12.28-1c-1.4-.14-2.52-.28-2.66-.28-17.22,0-17.5,0-17.5-4.06,0-3.78,2.24-11.9,4.06-14.42.84-1.26,1.82-1.54,5-1.54,1.54,0,1.54,0,18.9.7l16.95.56C642.79,3.08,642.79,3.08,643.63,3.36Z"/><path d="M578,2.1c3.5.56,3.92.84,3.92,2.8s-1.4,7.84-2.8,11.62c-1.54,4.2-2.24,4.9-4.76,4.9-.84,0-18.29-.81-18.29-.81L552.9,36h5c15.4,0,15.54,0,15.54,3.78,0,2-1.68,8.4-3.5,13.3-1.12,3.08-1.82,3.5-4.76,3.5l-5.46-.14-5.6-.14c-3.36-.14-5.18-.28-5.32-.28h-1.4a4.25,4.25,0,0,0-.42,1.54c-6.3,25.63-8.12,30.25-12.32,30.25-2.38,0-10.22-2-13.16-3.36-1.82-.84-2.66-1.82-2.66-3.08s.42-2.8,1.68-6.72c0-.14,1-3.36,1.82-6.45l2.52-9,.56-1.82.28-1.26a11.7,11.7,0,0,1-1.82-.42c-2.66-.42-3.08-.7-3.08-2.24,0-2.66,2.38-10.78,4.48-15.12.84-2,1.82-2.52,4.9-2.52a7.54,7.54,0,0,1,1.54.14c.28-.7.28-1,.42-1.26s.42-1.4,1.12-3.78l1.4-5.18c.7-2.52,1.12-3.78,1.12-3.78a12.13,12.13,0,0,0,.28-1.4c-7.84,0-8.68-.14-8.68-1.54,0-2.66,3.22-12.88,5.18-16.1,1.12-2.1,2.24-2.38,8.54-2.38H543C565.36.7,571.38,1,578,2.1Z"/><path d="M506.14.7c9.8,0,16,2.38,16,6.3,0,1-.56,3.22-2.38,9-7,24.08-9.8,35-16.8,62.87-2.38,8.54-2.38,8.54-8.68,8.54A33.49,33.49,0,0,1,483,84.85c-2.66-1.26-3.92-2.94-3.92-4.9,0-4.48,9.8-40.89,16.67-62L499.7,5.74C501,1.54,502.08.7,506.14.7Z"/><path d="M479.4,3.29c2.38,1,3.5,2.52,3.5,4.34,0,3.08-13.72,56.14-19,73.23-1.83,6-2.39,6.44-7.71,6.44-8.82,0-13.44-1.82-13.44-5.18,0-1.12,6.45-25.21,6.45-25.21H433.47l-.14,1c-.7,2.94-1.12,4.34-2.66,10.65-.84,3.5-1.68,6.72-2,8.12-2.24,9.52-3.22,10.78-7.7,10.78a33.74,33.74,0,0,1-9.94-1.82c-3.22-1.26-4.34-2.1-4.34-3.64s.56-3.92,3.36-14.71l2.1-8.26.56-2c-4.06-.84-4.9-1.68-4.9-4.48,0-3.08,2.52-12.18,4.34-15.12,1-1.68,2.38-2.38,5.18-2.38h1.26c.42-1.4,1-3.22,1.54-5.46,2.24-7.84,7-22.82,8-25.2A6,6,0,0,1,434,.63a34.79,34.79,0,0,1,10.36,2.52,4.91,4.91,0,0,1,3.22,4.62c0,1.4,0,1.4-2.1,8l-2.1,7-2.94,9.66-.42,1.4-.42,1.26,15.4.42a8.06,8.06,0,0,0,.28-1.4c.84-3.08,1.68-6,2.38-9.1l2.94-10.78,2-7.42c1.54-5.46,2.1-6.16,4.35-6.16A48.41,48.41,0,0,1,479.4,3.29Z"/><path d="M410.51,6.86a53.55,53.55,0,0,1-2.8,14.56c-1.26,3.36-3.78,4.34-10.92,4.34-2.1,0-6.16-.28-6.44-.56s-.56-.56-.56-2l.14-2.38a20.08,20.08,0,0,0-3.92.7c-2.52.7-4.06,2.52-4.06,4.76,0,2,1.12,4.48,3.92,8.82,6.86,10.78,9.52,17.92,9.52,26,0,9.11-4.34,17.65-11.48,22.27-5,3.36-12,5-20.44,5-13.73,0-18.63-2.1-18.63-7.7,0-3.78,2.38-15.4,3.92-18.9,1.12-2.67,2.8-3.51,6.86-3.51,3.64,0,8.27.56,9.11,1,.55.28.7.84.7,2.1a26.3,26.3,0,0,1-.42,4.35v.41l-.15.85a11,11,0,0,0,2.53.28c3.92,0,6.58-2.1,6.58-5.33,0-3.64-2.24-8.68-7.42-16.94-5.89-9.38-7.29-12.74-7.29-17.78,0-14.84,16.53-27,36.83-27,5.32,0,10.36,1,12.46,2.24C410,3.5,410.51,4.62,410.51,6.86Z"/><path d="M329.94,3.36c1,.28,1.4,1.26,1.4,2.66,0,2-1.4,7.7-2.8,11.62-1.4,3.64-2.38,4.48-5,4.48L313.3,22s-1.7,8.78-3.66,15.78c-7,25.48-9.94,36.55-11.48,42.85s-2.24,7-6.72,7a35,35,0,0,1-9.24-1.26c-4.2-1.12-5.74-2.24-5.74-4.06,0-2.24,7.84-29.69,16.94-58.81l.28-1.12.28-1c-1.4-.14-2.52-.28-2.66-.28-17.22,0-17.5,0-17.5-4.06,0-3.78,2.24-11.9,4.06-14.42.84-1.26,1.82-1.54,5-1.54,1.54,0,1.54,0,18.9.7l16.94.56C329.1,3.08,329.1,3.08,329.94,3.36Z"/><path d="M263.22,3.36c2.38,1,3.5,2.52,3.5,4.34,0,3.08-13.72,56.15-19,73.23-1.82,6-2.38,6.44-7.7,6.44-8.83,0-13.45-1.82-13.45-5.18C226.53,81.07,233,57,233,57H217.29l-.14,1c-.7,2.94-1.12,4.35-2.66,10.65-.84,3.5-1.68,6.72-2,8.12-2.24,9.52-3.22,10.78-7.7,10.78a33.74,33.74,0,0,1-9.94-1.82c-3.22-1.26-4.34-2.1-4.34-3.64s.56-3.92,3.36-14.7l2.1-8.27.56-2c-4.06-.84-4.9-1.68-4.9-4.48,0-3.08,2.52-12.18,4.34-15.12,1-1.68,2.38-2.38,5.18-2.38h1.26c.42-1.4,1-3.22,1.54-5.46,2.24-7.84,7-22.82,8-25.2A6,6,0,0,1,217.85.7a34.79,34.79,0,0,1,10.36,2.52,4.91,4.91,0,0,1,3.23,4.62c0,1.4,0,1.4-2.1,8l-2.11,7-2.94,9.66-.42,1.4-.42,1.26,15.41.42a8.06,8.06,0,0,0,.28-1.4c.84-3.08,1.68-6,2.38-9.1l2.94-10.78,2-7.42C248,1.4,248.52.7,250.76.7A48.33,48.33,0,0,1,263.22,3.36Z"/><path d="M186.35,21.28c0,3.22-.56,4.76-2.1,6-2.24,1.68-9,3.22-14.84,3.22-3.92,0-5.32-.7-5.32-2.94,0-3.92,0-4.06-.28-5-.28-1.82-1.82-2.94-3.92-2.94-3.64,0-7.42,3.22-10.78,9.24-4.62,8.54-7.56,19.6-7.56,28.56,0,6.3,2.24,10.23,5.88,10.23,3.22,0,6-2.95,7.84-8.55-1.54.14-1.82.14-3.64.42h-.84c-.7,0-1-.56-1-2.24,0-5.6,2-13.72,3.64-15.12,2.1-1.82,13.3-3.64,21.7-3.64,8,0,10.5.84,10.5,3.78,0,3.5-2.1,11.34-3.5,13-.7.7-1.12.84-3.5,1.26H178a44.29,44.29,0,0,1-2.8,9.11C169,80,158.21,88.49,146,88.49c-14.7,0-24.92-12.18-24.92-29.83,0-12.88,5.46-31.22,12.18-41.3C141,6,151.35,0,163.11,0c9.24,0,16.24,3.5,20,10.08A23.44,23.44,0,0,1,186.35,21.28Z"/><path d="M103.61.7c9.8,0,16,2.38,16,6.3,0,1-.56,3.22-2.38,9-7,24.08-9.8,35-16.8,62.87C98,87.37,98,87.37,91.71,87.37A33.49,33.49,0,0,1,80.5,84.85c-2.66-1.26-3.92-2.94-3.92-4.9,0-4.48,9.8-40.89,16.67-62L97.17,5.74C98.43,1.54,99.55.7,103.61.7Z"/><path d="M75.74,3.5c3.08,1.4,3.92,2.38,3.92,4.34,0,5.32-11.06,49-17.78,69.59a16.12,16.12,0,0,0-.56,2.8,3.88,3.88,0,0,0,.14,1.26A7.43,7.43,0,0,1,62,84.15c0,2.24-2,3.22-6.86,3.22a33.75,33.75,0,0,1-12.46-2.8c-2.66-1.4-3.36-2.8-4.48-9.1L31.78,39.76,24.64,66.93c0,.28-1.12,4.62-3.22,13.3a18.26,18.26,0,0,1-1.68,5.18c-1,1.82-2.52,2.38-5.74,2.38-7.28,0-14-2.8-14-6a12.34,12.34,0,0,1,.42-2.94c.56-2.1,1.26-4.76,2.94-11.48,7-27.59,9.52-36.83,16.52-60.63,1.26-4.34,2.8-6,5.46-6,4.9,0,13.86,3.08,16.52,5.6,3.5,3.5,6,12.46,9.8,35.56L58.52,11.2C61.18.84,61.18.84,64.82.84A26.43,26.43,0,0,1,75.74,3.5Z"/></svg>