<svg xmlns="http://www.w3.org/2000/svg" viewBox="0 0 126.63 202"><title>night_shift_</title><path d="M126.63,202H0v-.5c0-25.33,12.85-38.18,25.27-50.6s25-25,25-49.9-12.7-37.62-25-49.9S0,25.83,0,.5V0H126.63V.5c0,25.33-12.85,38.18-25.27,50.6s-25,25-25,49.9,12.7,37.62,25,49.9,25.27,25.27,25.27,50.6ZM1,201H125.62c-.17-24.59-12.78-37.2-25-49.4C88.22,139.18,75.38,126.33,75.38,101s12.85-38.18,25.27-50.6c12.2-12.2,24.81-24.81,25-49.4H1c.17,24.59,12.78,37.2,25,49.4C38.4,62.82,51.25,75.67,51.25,101S38.4,139.18,26,151.6C13.78,163.8,1.17,176.41,1,201Z"/></svg>